# xmcd
# 
# Track frame offsets:
#     150
#     17124
#     33836
#     49382
#     66341
#     83054
# 
# Disc length: 1312
# 
# Revision: 0
# Processed by: cddbd v1.5.2PL0 Copyright (c) Steve Scherf et al.
# Submitted via: fre:ac v1.0.31
# 
DISCID=48051e06
DTITLE=Various Artist - バグっていいじゃん
DYEAR=0
DGENRE=JPop
TTITLE0=ＨＫＴ４８ - バグっていいじゃん
TTITLE1=ＨＫＴ４８ - 必然的恋人
TTITLE2=ＨＫＴ４８ - ＨＫＴ４８ファミリー
TTITLE3=ＨＫＴ４８ - バグっていいじゃん
TTITLE4=ＨＫＴ４８ - 必然的恋人
TTITLE5=ＨＫＴ４８ - ＨＫＴ４８ファミリー
EXTD=
EXTT0=
EXTT1=
EXTT2=
EXTT3=
EXTT4=
EXTT5=
PLAYORDER=
